<?xml version="1.0" encoding="utf-8"?>
<!-- Generator: Adobe Illustrator 19.0.1, SVG Export Plug-In . SVG Version: 6.00 Build 0)  -->
<svg version="1.1" id="Layer_1" xmlns="http://www.w3.org/2000/svg" xmlns:xlink="http://www.w3.org/1999/xlink" x="0px" y="0px"
	 viewBox="-288.4 365.4 65 65" style="enable-background:new -288.4 365.4 65 65;" xml:space="preserve">
<style type="text/css">
	.st0{fill:#FF72A5;}
	.st1{fill:#FFFFFF;}
</style>
<g id="Layer_2">
	<circle class="st0" cx="-255.9" cy="397.9" r="32.5"/>
</g>
<g id="Layer_1_1_">
	<path id="ball_1_" class="st1" d="M-256.9,419.8c-12,0-21.7-9.7-21.7-21.7s9.7-21.7,21.7-21.7c12,0,21.7,9.7,21.7,21.7
		S-244.9,419.8-256.9,419.8L-256.9,419.8z M-238.5,401c-0.6-0.1-5.8-1.7-11.6-0.7c2.5,6.6,3.5,12,3.6,13.1
		C-242.4,410.7-239.4,406.2-238.5,401L-238.5,401z M-249.7,415.2c-0.3-1.6-1.3-7.2-3.9-14h-0.1c-10.4,3.6-14.2,10.8-14.6,11.6
		c3.2,2.5,7.1,3.9,11.4,3.9C-254.3,416.6-251.8,416-249.7,415.2L-249.7,415.2z M-270.6,410.5c0.4-0.7,5.5-9.1,15-12.1
		c0.3-0.1,0.4-0.1,0.7-0.3c-0.4-1-1-2.2-1.4-3.2c-9.2,2.7-18.2,2.6-19.1,2.6c0,0.1,0,0.4,0,0.6
		C-275.4,402.9-273.6,407.2-270.6,410.5L-270.6,410.5z M-274.9,394.4c0.9,0,8.5,0,17-2.3c-3-5.5-6.4-10-6.9-10.7
		C-269.9,383.8-273.8,388.6-274.9,394.4L-274.9,394.4z M-261.2,380.2c0.6,0.7,3.9,5.2,6.9,10.8c6.6-2.5,9.4-6.2,9.7-6.6
		c-3.3-2.9-7.5-4.6-12.3-4.6C-258.3,379.6-259.8,379.8-261.2,380.2L-261.2,380.2z M-242.6,386.4c-0.4,0.6-3.5,4.5-10.4,7.2
		c0.4,0.9,0.9,1.7,1.2,2.7c0.1,0.3,0.3,0.6,0.4,1c6.2-0.7,12.3,0.4,12.9,0.6C-238.4,393.6-240,389.6-242.6,386.4L-242.6,386.4z"/>
</g>
</svg>
