<?xml version="1.0" encoding="utf-8"?>
<!-- Generator: Adobe Illustrator 19.0.1, SVG Export Plug-In . SVG Version: 6.00 Build 0)  -->
<svg version="1.1" id="Layer_1" xmlns:sketch="http://www.bohemiancoding.com/sketch/ns"
	 xmlns="http://www.w3.org/2000/svg" xmlns:xlink="http://www.w3.org/1999/xlink" x="0px" y="0px" viewBox="-275 367 60 60"
	 style="enable-background:new -275 367 60 60;" xml:space="preserve">
<style type="text/css">
	.st0{fill:#FFFFFF;}
	.st1{fill:#3498DB;}
	.st2{fill:#009BD5;}
</style>
<title></title>
<g id="behance">
	<g id="XMLID_1_">
		<g>
			<rect x="-239.7" y="386.9" class="st0" width="9.2" height="2.3"/>
			<path class="st1" d="M-232.6,395.7c0.3,0.3,0.5,0.7,0.7,1.1c0.1,0.4,0.3,0.9,0.3,1.3h-6.8c0-0.5,0.1-0.9,0.3-1.3
				c0.3-0.4,0.4-0.8,0.7-1.1s0.5-0.7,1.1-0.8c0.4-0.1,0.8-0.3,1.3-0.3s1.1,0.1,1.5,0.3C-233.3,395-232.9,395.3-232.6,395.7z"/>
			<path class="st0" d="M-238.6,400.7c0,0.1,0,3.3,2.7,4c3.1,0.9,4.4-1.7,4.5-2h4c-0.1,0.5-1.7,7.1-10.5,4.9
				c-5.3-1.3-5.1-7.7-5.1-8.3c0-0.5,0-3.2,2.3-5.6c2.1-2.5,5.3-2.5,5.9-2.5c0.7,0,3.9,0,5.9,2.1c2.5,2.8,2,7.3,2,7.3H-238.6z
				 M-238.3,398.1h6.8c0-0.5-0.1-0.9-0.3-1.3c-0.3-0.4-0.4-0.8-0.7-1.1s-0.7-0.5-1.1-0.7s-0.9-0.3-1.5-0.3s-0.9,0.1-1.3,0.3
				c-0.4,0.3-0.7,0.4-1.1,0.8c-0.3,0.3-0.5,0.7-0.7,1.1C-238.2,397.3-238.3,397.7-238.3,398.1z"/>
			<path class="st2" d="M-239.7,389.3h9.2V387h-9.2V389.3z M-244.5,402.3c0.7-5.3-4-6.5-4-6.5s3.9-1.1,2.9-5.7
				c-0.8-4.7-6.5-4.3-6.5-4.3l-10.7-0.1v22h11.3C-251.5,407.8-245.1,407.8-244.5,402.3z M-235,391.5c-0.7,0-3.7,0-5.9,2.5
				c-2.3,2.5-2.3,5.1-2.3,5.6c0,0.5-0.3,6.9,5.1,8.1c8.8,2.1,10.4-4.4,10.5-4.9h-4c-0.1,0.3-1.5,2.8-4.5,2c-2.7-0.7-2.7-3.9-2.7-4
				l11.5,0.1c0,0,0.5-4.5-2-7.3C-231.1,391.5-234.3,391.5-235,391.5z M-245,367c16.7,0,30,13.3,30,30s-13.3,30-30,30s-30-13.3-30-30
				S-261.7,367-245,367z"/>
			<path class="st0" d="M-248.5,395.9c0,0,4.7,1.1,4,6.5s-7.1,5.5-7.1,5.5h-11.3v-22.1l10.7,0.1c0,0,5.9-0.3,6.5,4.3
				C-245,394.7-248.5,395.9-248.5,395.9z M-249.4,400.7c0-0.4-0.1-0.7-0.3-1.1c-0.1-0.3-0.4-0.7-0.5-0.8c-0.3-0.1-0.7-0.4-1.1-0.7
				c-0.4-0.1-0.9-0.1-1.5-0.1h-5.3v5.7h4.8c0.3,0,1.1,0,1.9-0.1c0.3-0.1,0.8-0.3,1.2-0.7c0.1-0.1,0.5-0.5,0.7-1.1
				C-249.4,401.5-249.4,401-249.4,400.7z M-250.1,391.7c0-0.3-0.1-0.7-0.1-1.1c-0.1-0.3-0.3-0.5-0.5-0.8c-0.3-0.1-0.7-0.4-1.1-0.5
				c-0.4-0.1-0.9-0.1-1.5-0.1h-4.8v5.2h4.4c0.3,0,1.1,0,1.6-0.1c0.3-0.1,0.8-0.3,1.1-0.7c0.1-0.1,0.4-0.5,0.7-0.9
				C-250.2,392.3-250.1,391.9-250.1,391.7z"/>
			<path class="st1" d="M-249.7,399.7c0.1,0.3,0.3,0.7,0.3,1.1c0,0.3,0,0.8-0.3,1.2c-0.1,0.5-0.5,0.9-0.5,1.1
				c-0.4,0.4-0.9,0.5-1.2,0.5c-0.7,0.3-1.5,0.3-1.9,0.3h-4.8v-5.9h5.3c0.5,0,1.1,0.1,1.5,0.3c0.4,0.1,0.8,0.3,1.1,0.5
				C-249.9,399.1-249.7,399.4-249.7,399.7z"/>
			<path class="st1" d="M-250.3,390.7c0.1,0.3,0.1,0.7,0.1,1.1c0,0.3,0,0.7-0.1,1.1c-0.1,0.4-0.4,0.8-0.5,0.9
				c-0.3,0.3-0.9,0.5-1.1,0.7c-0.5,0.1-1.3,0.3-1.6,0.3h-4.4v-5.2h4.8c0.5,0,1.1,0.1,1.5,0.3c0.4,0.1,0.7,0.3,1.1,0.5
				C-250.6,390.2-250.3,390.5-250.3,390.7z"/>
		</g>
	</g>
</g>
</svg>
