<?xml version="1.0" encoding="utf-8"?>
<!-- Generator: Adobe Illustrator 19.0.1, SVG Export Plug-In . SVG Version: 6.00 Build 0)  -->
<svg version="1.1" id="Layer_1" xmlns="http://www.w3.org/2000/svg" xmlns:xlink="http://www.w3.org/1999/xlink" x="0px" y="0px"
	 viewBox="-272 363 67 67" style="enable-background:new -272 363 67 67;" xml:space="preserve">
<style type="text/css">
	.st0{fill:#FFFFFF;}
	.st1{fill:#3A589B;}
</style>
<g id="XMLID_1_">
	<g>
		<path class="st0" d="M-229.8,390.9l-0.7,6.1h-4.9v17.7h-7.4V397h-3.7v-6.1h3.7v-3.7c0-5,2.1-7.9,7.9-7.9h4.9v6.1h-3
			c-2.3,0-2.4,0.9-2.4,2.5v3H-229.8z"/>
		<path class="st1" d="M-238,364.5c18,0,32.5,14.5,32.5,32.5s-14.5,32.5-32.5,32.5s-32.5-14.5-32.5-32.5S-256,364.5-238,364.5z
			 M-230.4,397l0.7-6.1h-5.5v-3c0-1.6,0.1-2.5,2.4-2.5h3v-6.1h-4.9c-5.8,0-7.9,2.9-7.9,7.9v3.7h-3.7v6.1h3.7v17.7h7.4V397H-230.4z"
			/>
	</g>
</g>
</svg>
