<?xml version="1.0" encoding="utf-8"?>
<!-- Generator: Adobe Illustrator 19.0.1, SVG Export Plug-In . SVG Version: 6.00 Build 0)  -->
<svg version="1.1" id="Layer_1" xmlns="http://www.w3.org/2000/svg" xmlns:xlink="http://www.w3.org/1999/xlink" x="0px" y="0px"
	 viewBox="-289 381 32 32" style="enable-background:new -289 381 32 32;" xml:space="preserve">
<style type="text/css">
	.st0{fill:#FFFFFF;}
	.st1{fill:#FF3921;}
</style>
<g>
	<g id="XMLID_1_">
		<g>
			<polygon class="st0" points="-265,397 -265,400 -267,400 -267,397 -270,397 -270,395 -267,395 -267,392 -265,392 -265,395 
				-262,395 -262,397 			"/>
			<path class="st1" d="M-272.1,402.1c0.1,0.2,0.1,0.4,0.1,0.6c0,1.8-1.2,3.3-4.6,3.3c-2.4,0-4.2-1.5-4.2-3.4c0-1.8,2.2-3.3,4.6-3.3
				c0.6,0,1.1,0.1,1.6,0.3C-273.3,400.5-272.3,401-272.1,402.1z"/>
			<path class="st1" d="M-273.5,391.5c0.3,2.1-0.8,3.8-2.4,3.8c-1.6,0-3.2-1.8-3.4-3.9s0.8-3.8,2.4-3.7
				C-275.3,387.6-273.8,389.3-273.5,391.5z"/>
			<path class="st1" d="M-270,395v2h3v3h2v-3h3v-2h-3v-3h-2v3H-270z M-276.8,398.8c-3.5,0-6.2,2.2-6.2,4.5c0,2.3,3,3.7,6.4,3.7
				c4,0,6.2-2.3,6.2-4.5c0-1.8-0.5-2.9-2.2-4.1c-0.6-0.4-1.7-1.4-1.7-2c0-0.7,0.2-1,1.2-1.8c1-0.8,1.8-1.8,1.8-3.1
				c0-1.6-0.7-3.5-2-3.5h2.3l1-1c0,0-4.6,0-6.2,0c-2.8,0-5.5,2-5.5,4.5c0,2.5,1.9,4.5,4.8,4.5c0.2,0,0.4,0,0.6,0
				c-0.2,0.3-0.3,0.7-0.3,1.1c0,0.7,0.4,1.3,0.8,1.7C-276.1,398.8-276.4,398.8-276.8,398.8z M-273,381c8.8,0,16,7.2,16,16
				s-7.2,16-16,16s-16-7.2-16-16S-281.8,381-273,381z"/>
			<path class="st0" d="M-280.7,402.6c0,1.8,1.7,3.4,4.2,3.4c3.4,0,4.6-1.4,4.6-3.3c0-0.2,0-0.4-0.1-0.6c-0.3-1-1.2-1.6-2.5-2.5
				c-0.5-0.2-1-0.3-1.6-0.3C-278.6,399.3-280.7,400.8-280.7,402.6z M-279.4,391.3c0.3,2.1,1.8,3.9,3.4,3.9c1.6,0,2.7-1.6,2.4-3.8
				s-1.8-3.8-3.4-3.9C-278.6,387.5-279.7,389.1-279.4,391.3z M-276.9,395.9c-2.9,0-4.8-2-4.8-4.5c0-2.5,2.7-4.5,5.5-4.5
				c1.6,0,6.2,0,6.2,0l-1,1h-2.3c1.3,0,2,1.9,2,3.5c0,1.3-0.7,2.3-1.8,3.1c-1,0.8-1.2,1.1-1.2,1.8c0,0.6,1.1,1.5,1.7,2
				c1.7,1.2,2.2,2.3,2.2,4.1c0,2.3-2.2,4.5-6.2,4.5c-3.5,0-6.4-1.4-6.4-3.7c0-2.3,2.7-4.5,6.2-4.5c0.4,0,0.7,0,1.1,0
				c-0.5-0.5-0.8-1-0.8-1.7c0-0.4,0.1-0.8,0.3-1.1C-276.5,395.9-276.6,395.9-276.9,395.9z"/>
		</g>
		<g>
		</g>
	</g>
</g>
</svg>
