<?xml version="1.0" encoding="utf-8"?>
<!-- Generator: Adobe Illustrator 19.0.1, SVG Export Plug-In . SVG Version: 6.00 Build 0)  -->
<svg version="1.1" id="Layer_1" xmlns="http://www.w3.org/2000/svg" xmlns:xlink="http://www.w3.org/1999/xlink" x="0px" y="0px"
	 viewBox="-49 141 512 512" style="enable-background:new -49 141 512 512;" xml:space="preserve">
<style type="text/css">
	.st0{fill:#FFFFFF;}
</style>
<g>
	<path class="st0" d="M208.3,248.2c-16.3,0-29.5,13.2-29.5,29.5c0,16.3,13.2,29.5,29.5,29.5c16.3,0,29.5-13.2,29.5-29.5
		C237.9,261.4,224.6,248.2,208.3,248.2z M208,294.5c-9.8,0-17.1-8-17.5-17.5c-0.4-9.5,8.3-17.5,17.5-17.5c9.8,0,17.1,8,17.5,17.5
		C225.9,286.5,217.2,294.5,208,294.5z"/>
	<polygon class="st0" points="228.4,346.6 228.4,336.3 228.4,326.9 169.3,326.9 169.3,346.6 189,346.6 189,513.9 169.3,513.9 
		169.3,533.6 248.1,533.6 248.1,513.9 228.4,513.9 	"/>
	<path class="st0" d="M207.1,150.6c-135.9,0-246,110.1-246,246c0,135.9,110.1,246,246,246s246-110.1,246-246
		C453.1,260.8,343,150.6,207.1,150.6z M207.1,623C82.3,623-19.2,521.4-19.2,396.6S82.3,170.3,207.1,170.3
		c124.8,0,226.3,101.5,226.3,226.3S331.9,623,207.1,623z"/>
</g>
</svg>
