<?xml version="1.0" encoding="utf-8"?>
<!-- Generator: Adobe Illustrator 19.0.1, SVG Export Plug-In . SVG Version: 6.00 Build 0)  -->
<svg version="1.1" id="Layer_1" xmlns="http://www.w3.org/2000/svg" xmlns:xlink="http://www.w3.org/1999/xlink" x="0px" y="0px"
	 viewBox="450.5 -21.5 97 66" style="enable-background:new 450.5 -21.5 97 66;" xml:space="preserve">
<style type="text/css">
	.st0{display:none;}
	.st1{display:inline;}
	.st2{fill:none;stroke:#000000;stroke-width:16;stroke-linecap:round;stroke-linejoin:round;stroke-miterlimit:10;}
	.st3{fill:#FFFFFF;}
</style>
<g id="layer" class="st0">
	<g class="st1">
		<rect x="1209" y="-821" class="st2" width="426" height="296"/>
		<line class="st2" x1="1635" y1="-821" x2="1422" y2="-615"/>
		<line class="st2" x1="1209" y1="-821" x2="1422" y2="-615"/>
		<line class="st2" x1="1209" y1="-525" x2="1359" y2="-675"/>
		<line class="st2" x1="1635" y1="-525" x2="1485" y2="-675"/>
	</g>
</g>
<g>
	<g id="XMLID_1_">
		<g>
			<polygon class="st3" points="547.8,-19.1 547.8,42.2 516.6,11 			"/>
			<path class="st3" d="M499.1,27.3c0.1,0,0.1,0,0.2,0c0,0,0,0,0,0c0,0,0.1,0,0.1,0c0,0,0,0,0.1,0c0,0,0.1,0,0.1,0c0,0,0,0,0.1,0
				c0,0,0.1,0,0.1,0c0,0,0,0,0.1,0c0,0,0.1,0,0.1,0c0,0,0,0,0.1,0c0,0,0,0,0.1,0c0,0,0,0,0.1,0c0,0,0,0,0.1-0.1c0,0,0,0,0.1-0.1
				s0,0,0,0l13.5-13.1l31.3,31.2H453l31.2-31.2l13.5,13.1c0,0,0,0,0,0c0,0,0,0,0.1,0c0,0,0,0,0.1,0.1c0,0,0,0,0.1,0s0,0,0.1,0
				c0,0,0,0,0.1,0s0.1,0,0.1,0c0,0,0,0,0.1,0c0,0,0.1,0,0.1,0c0,0,0,0,0.1,0c0,0,0.1,0,0.1,0c0,0,0,0,0.1,0c0,0,0.1,0,0.1,0
				c0,0,0,0,0,0C498.9,27.3,499,27.3,499.1,27.3z"/>
			<polygon class="st3" points="481.5,11.1 450.3,42.2 450.3,-19.1 			"/>
			<polygon class="st3" points="545,-21.7 499.1,22.8 453.1,-21.7 			"/>
			<path d="M499.4,27.3c0,0-0.1,0-0.1,0c0,0,0,0,0,0c-0.1,0-0.1,0-0.2,0s-0.1,0-0.2,0c0,0,0,0,0,0s-0.1,0-0.1,0c0,0,0,0-0.1,0
				c0,0-0.1,0-0.1,0c0,0,0,0-0.1,0c0,0-0.1,0-0.1,0c0,0,0,0-0.1,0c0,0-0.1,0-0.1,0c0,0,0,0-0.1,0c0,0-0.1,0-0.1,0c0,0,0,0-0.1,0
				s0,0-0.1-0.1c0,0,0,0-0.1,0c0,0,0,0,0,0l-13.5-13.1L453,44.9h92.1l-31.2-31.3l-13.5,13.1c0,0,0,0,0,0s0,0-0.1,0.1
				c0,0,0,0-0.1,0.1s0,0-0.1,0c0,0-0.1,0-0.1,0c0,0,0,0-0.1,0s-0.1,0-0.1,0c0,0,0,0-0.1,0c0,0-0.1,0-0.1,0c0,0,0,0-0.1,0
				c0,0-0.1,0-0.1,0C499.5,27.3,499.4,27.3,499.4,27.3z M551.6,47C551.6,47,551.6,47,551.6,47c0,0.1,0,0.1,0,0.2c0,0.1,0,0.1,0,0.1
				c0,0,0,0.1,0,0.1s0,0.1,0,0.1c0,0,0,0.1,0,0.1c0,0,0,0,0,0.1c0,0,0,0.1,0,0.1c0,0,0,0,0,0.1c0,0,0,0.1,0,0.1c0,0,0,0,0,0.1
				c0,0,0,0-0.1,0.1c0,0-0.1,0.1-0.1,0.1c0,0,0,0,0,0c0,0,0,0,0,0c0,0-0.1,0.1-0.1,0.1c0,0,0,0-0.1,0c0,0,0,0-0.1,0c0,0-0.1,0-0.1,0
				c0,0,0,0-0.1,0c0,0-0.1,0-0.1,0c0,0,0,0-0.1,0c0,0-0.1,0-0.1,0s-0.1,0-0.1,0c0,0-0.1,0-0.1,0c0,0-0.1,0-0.1,0c0,0-0.1,0-0.1,0.1
				c0,0,0,0-0.1,0c-0.1,0-0.1,0-0.2,0H448.5c-0.1,0-0.1,0-0.2,0c0,0-0.1,0-0.1,0c0,0-0.1,0-0.1,0c0,0-0.1,0-0.1,0c0,0-0.1,0-0.1,0
				c0,0-0.1,0-0.1,0c0,0-0.1,0-0.1,0c0,0,0,0-0.1,0c0,0-0.1,0-0.1,0c0,0,0,0-0.1,0c0,0-0.1,0-0.1,0c0,0,0,0-0.1,0s0,0-0.1,0
				c0,0-0.1-0.1-0.1-0.1c0,0,0,0,0,0c0,0,0,0,0,0c0,0-0.1-0.1-0.1-0.1c0,0,0,0,0-0.1c0,0,0,0,0-0.1c0,0,0-0.1,0-0.1c0,0,0,0,0-0.1
				c0,0,0-0.1,0-0.1c0,0,0,0,0-0.1c0,0,0-0.1,0-0.1c0,0,0-0.1,0-0.1s0-0.1,0-0.1c0,0,0-0.1,0-0.1c0,0,0-0.1,0-0.1c0,0,0,0,0-0.1
				c0-0.1,0-0.1,0-0.2v-70.4c0,0,0,0,0-0.1c0,0,0-0.1,0-0.1c0,0,0-0.1,0-0.1c0,0,0-0.1,0-0.1c0,0,0-0.1,0-0.1c0,0,0-0.1,0-0.1
				c0,0,0-0.1,0-0.1c0,0,0-0.1,0-0.1c0,0,0-0.1,0-0.1c0,0,0-0.1,0-0.1c0,0,0,0,0-0.1c0,0,0,0,0-0.1c0,0,0,0,0-0.1c0,0,0,0,0-0.1
				s0,0,0.1-0.1c0,0,0,0,0,0c0,0,0.1,0,0.1-0.1c0,0,0,0,0,0c0,0,0,0,0.1-0.1c0,0,0,0,0.1,0c0,0,0,0,0.1,0c0,0,0.1,0,0.1,0
				c0,0,0,0,0.1,0c0,0,0.1,0,0.1,0c0,0,0.1,0,0.1,0c0,0,0,0,0.1,0s0.1,0,0.1,0c0,0,0.1,0,0.1,0c0,0,0,0,0.1,0c0,0,0.1,0,0.1,0
				c0,0,0,0,0.1,0c0,0,0.1,0,0.1,0c0,0,0,0,0,0h101.3c0,0,0,0,0,0c0,0,0.1,0,0.1,0c0,0,0,0,0.1,0c0,0,0.1,0,0.1,0c0,0,0,0,0.1,0
				c0,0,0.1,0,0.1,0c0,0,0.1,0,0.1,0c0,0,0,0,0.1,0c0,0,0.1,0,0.1,0c0,0,0.1,0,0.1,0c0,0,0,0,0.1,0s0.1,0,0.1,0c0,0,0,0,0.1,0
				c0,0,0,0,0.1,0c0,0,0,0,0.1,0c0,0,0,0,0.1,0c0,0,0,0,0.1,0.1s0,0,0,0c0,0,0,0,0.1,0.1s0,0,0,0.1c0,0,0,0,0,0.1c0,0,0,0,0,0.1
				c0,0,0,0,0,0.1c0,0,0,0.1,0,0.1c0,0,0,0,0,0.1s0,0.1,0,0.1s0,0.1,0,0.1c0,0,0,0.1,0,0.1c0,0,0,0.1,0,0.1c0,0,0,0.1,0,0.1
				s0,0.1,0,0.1s0,0.1,0,0.1c0,0,0,0,0,0.1v70.4C551.6,46.8,551.6,46.9,551.6,47z M547.8,42.2v-61.3L516.6,11L547.8,42.2z
				 M499.1,22.8L545-21.7h-91.8L499.1,22.8z M450.3,42.2l31.2-31.2l-31.2-30.2V42.2z"/>
		</g>
	</g>
</g>
</svg>
