<?xml version="1.0" encoding="utf-8"?>
<!-- Generator: Adobe Illustrator 19.0.1, SVG Export Plug-In . SVG Version: 6.00 Build 0)  -->
<svg version="1.1" id="Слой_1" xmlns="http://www.w3.org/2000/svg" xmlns:xlink="http://www.w3.org/1999/xlink" x="0px" y="0px"
	 viewBox="51 -37 125 125" style="enable-background:new 51 -37 125 125;" xml:space="preserve">
<style type="text/css">
	.st0{fill:#FFFFFF;stroke:#000000;stroke-miterlimit:10;}
</style>
<g id="Слой_2">
	<g id="XMLID_2_">
		<g>
			<path class="st0" d="M103.9,36c3.4,3.3,16.1,15.1,21.7,16.2L139,38.7c0,0,5.3-5,10.9,0.1l21.9,21.9c0,0,3.6,6.5-0.6,10.6
				L160.6,82c0,0-18.8,12-49-7.2c0,0-13.4-7-26.3-19.7c-0.3-0.3-0.8-0.8-1.1-1.1C71.3,41,64.3,27.6,64.3,27.6
				c-19.4-30.2-7.3-49-7.3-49l10.7-10.7c4-4.1,10.6-0.6,10.6-0.6l22,21.9c5.2,5.6,0.1,10.9,0.1,10.9L86.9,13.6
				c1.1,5.6,13.1,18.2,16.4,21.7C103.6,35.6,103.7,35.7,103.9,36z"/>
		</g>
		<g>
			<path class="st0" d="M103.9,36c3.4,3.3,16.1,15.1,21.7,16.2L139,38.7c0,0,5.3-5,10.9,0.1l21.9,21.9c0,0,3.6,6.5-0.6,10.6
				L160.6,82c0,0-18.8,12-49-7.2c0,0-13.4-7-26.3-19.7"/>
			<path class="st0" d="M103,35c0,0,0.1,0.1,0.3,0.2"/>
			<path class="st0" d="M104.1,36.2c0,0-0.1-0.1-0.2-0.3c-0.1-0.1-0.3-0.3-0.6-0.6c-3.3-3.4-15.1-16.1-16.4-21.7l13.4-13.4
				c0,0,5-5.3-0.1-10.9l-22-21.9c0,0-6.5-3.6-10.6,0.6L57-21.4c0,0-12,18.8,7.3,49c0,0,7,13.4,19.9,26.3c0.3,0.3,0.8,0.8,1.1,1.1"/>
		</g>
	</g>
</g>
</svg>
